<?xml version="1.0" encoding="utf-8"?><svg xmlns="http://www.w3.org/2000/svg" xmlns:xlink="http://www.w3.org/1999/xlink" width="1680" height="971" preserveAspectRatio="xMidYMid" viewBox="0 0 1680 971" style="z-index:1;margin-right:-2px;display:block;background-repeat-y:initial;background-repeat-x:initial;background-color:rgb(0, 124, 197);animation-play-state:paused" ><g transform="" style="animation-play-state:paused" ><defs style="animation-play-state:paused" ><filter id="blur-vd4f4oepju8-1" x="-1" y="-1" width="3" height="3" style="animation-play-state:paused" ><feGaussianBlur stdDeviation="3" style="animation-play-state:paused" ></feGaussianBlur></filter>
<filter id="blur-vd4f4oepju8-2" x="-1" y="-1" width="3" height="3" style="animation-play-state:paused" ><feGaussianBlur stdDeviation="1.5" style="animation-play-state:paused" ></feGaussianBlur></filter>
<filter id="blur-vd4f4oepju8-3" x="-1" y="-1" width="3" height="3" style="animation-play-state:paused" ><feGaussianBlur stdDeviation="1" style="animation-play-state:paused" ></feGaussianBlur></filter></defs>
<circle cx="767.1406823771008" cy="0" transform="matrix(1,0,0,1,0,975.2540283203125)" r="5.185948125498725" fill="#ddeeff" opacity="0.36000000000000004" style="transform:matrix(1, 0, 0, 1, 0, 975.254);opacity:0.36;animation-play-state:paused" ></circle>
<circle cx="140.741676104457" cy="0" transform="matrix(1,0,0,1,0,67.64739990234375)" r="12.134756388619476" fill="#aabbcc" opacity="0.7200000000000001" style="transform:matrix(1, 0, 0, 1, 0, 67.6474);opacity:0.72;animation-play-state:paused" ></circle>
<circle cx="221.8611976795152" cy="0" transform="matrix(1,0,0,1,0,946.32763671875)" r="8.649630335510508" fill="#ddeeff" opacity="0.63" style="transform:matrix(1, 0, 0, 1, 0, 946.328);opacity:0.63;animation-play-state:paused" ></circle>
<circle cx="1256.1658559053699" cy="0" transform="matrix(1,0,0,1,0,552.4741821289062)" r="7.243338218006405" fill="#ddeeff" opacity="0.36000000000000004" style="transform:matrix(1, 0, 0, 1, 0, 552.474);opacity:0.36;animation-play-state:paused" ></circle>
<circle cx="135.32847771742541" cy="0" transform="matrix(1,0,0,1,0,786.6253051757812)" r="9.551249941578309" fill="#bbddff" opacity="0.63" style="transform:matrix(1, 0, 0, 1, 0, 786.625);opacity:0.63;animation-play-state:paused" ></circle>
<circle cx="863.4043477697596" cy="0" transform="matrix(1,0,0,1,0,85.420654296875)" r="14.576900881213582" fill="#bbddff" opacity="0.7200000000000001" style="transform:matrix(1, 0, 0, 1, 0, 85.4207);opacity:0.72;animation-play-state:paused" ></circle>
<circle cx="888.0670824466348" cy="0" transform="matrix(1,0,0,1,0,89.38482666015625)" r="4.945220446886314" fill="#ddeeff" opacity="0.36000000000000004" style="transform:matrix(1, 0, 0, 1, 0, 89.3848);opacity:0.36;animation-play-state:paused" ></circle>
<circle cx="1615.7519910916935" cy="0" transform="matrix(1,0,0,1,0,577.0885009765625)" r="5.681158357505185" fill="#bbddff" opacity="0.36000000000000004" style="transform:matrix(1, 0, 0, 1, 0, 577.089);opacity:0.36;animation-play-state:paused" ></circle>
<circle cx="924.5607448968694" cy="0" transform="matrix(1,0,0,1,0,150.20782470703125)" r="7.364494520695102" fill="#aabbcc" opacity="0.36000000000000004" style="transform:matrix(1, 0, 0, 1, 0, 150.208);opacity:0.36;animation-play-state:paused" ></circle>
<circle cx="44.61068822756619" cy="0" transform="matrix(1,0,0,1,0,255.81439208984375)" r="13.00933481986384" fill="#ddeeff" opacity="0.7200000000000001" style="transform:matrix(1, 0, 0, 1, 0, 255.814);opacity:0.72;animation-play-state:paused" ></circle>
<circle cx="419.01477713066055" cy="0" transform="matrix(1,0,0,1,0,741.2241821289062)" r="12.035386901626687" fill="#aabbcc" opacity="0.7200000000000001" style="transform:matrix(1, 0, 0, 1, 0, 741.224);opacity:0.72;animation-play-state:paused" ></circle>
<circle cx="742.2702999192461" cy="0" transform="matrix(1,0,0,1,0,306.27978515625)" r="7.274388104192999" fill="#ddeeff" opacity="0.36000000000000004" style="transform:matrix(1, 0, 0, 1, 0, 306.28);opacity:0.36;animation-play-state:paused" ></circle>
<circle cx="918.5691661401157" cy="0" transform="matrix(1,0,0,1,0,737.4964599609375)" r="12.14085065385953" fill="#aabbcc" opacity="0.7200000000000001" style="transform:matrix(1, 0, 0, 1, 0, 737.496);opacity:0.72;animation-play-state:paused" ></circle>
<circle cx="1593.6384279976064" cy="0" transform="matrix(1,0,0,1,0,960.0550537109375)" r="10.085662850044624" fill="#aabbcc" opacity="0.63" style="transform:matrix(1, 0, 0, 1, 0, 960.055);opacity:0.63;animation-play-state:paused" ></circle>
<circle cx="1413.2771515252155" cy="0" transform="matrix(1,0,0,1,0,864.9400024414062)" r="8.767395207599474" fill="#bbddff" opacity="0.63" style="transform:matrix(1, 0, 0, 1, 0, 864.94);opacity:0.63;animation-play-state:paused" ></circle></g></svg>